# xmcd
#
# Track frame offsets:
#	150
#	13730
#	34020
#	51617
#	68952
#	82520
#	93822
#	106030
#	133917
#	150405
#	164227
#
# Disc length: 2407 seconds
# Revision: 0
# Processed by: cddbd v1.5.2PL0 Copyright (c) Steve Scherf et al.
# Submitted via: dBpowerAMP V12.0
#
DISCID=8609650b
DTITLE=Etta James - Losers Weepers
DYEAR=1971
DGENRE=Blues
TTITLE0=Take Out Some Insurance
TTITLE1=I Got It Bad and That Ain't Good
TTITLE2=I Think It's You
TTITLE3=Someone
TTITLE4=Losers Weepers
TTITLE5=Weepers
TTITLE6=You're the Fool
TTITLE7=Hold Back My Tears
TTITLE8=For all We Know
TTITLE9=Look at the Rain
TTITLE10=Ease Away a Little Bit at a Time
EXTD=
EXTT0=
EXTT1=
EXTT2=
EXTT3=
EXTT4=
EXTT5=
EXTT6=
EXTT7=
EXTT8=
EXTT9=
EXTT10=
PLAYORDER=
